<?xml version="1.0"?>
<svg xmlns="http://www.w3.org/2000/svg" viewBox="0 0 30 30" width="30px" height="30px">
    <path d="M 4 5 C 2.895 5 2 5.895 2 7 L 2 23 C 2 24.105 2.895 25 4 25 L 26 25 C 27.105 25 28 24.105 28 23 L 28 7 C 28 5.895 27.105 5 26 5 L 4 5 z M 12.494141 12.982422 C 12.817141 12.982422 13.090922 13.053703 13.419922 13.220703 L 13.419922 14.101562 L 13.417969 14.101562 C 13.105969 13.796563 12.833563 13.669922 12.476562 13.669922 C 11.772562 13.669922 11.21875 14.252234 11.21875 14.990234 C 11.21875 15.769234 11.755719 16.318359 12.511719 16.318359 C 12.851719 16.318359 13.117969 16.198437 13.417969 15.898438 L 13.417969 16.78125 C 13.076969 16.94225 12.798563 17.007813 12.476562 17.007812 C 11.333562 17.007812 10.445313 16.129047 10.445312 14.998047 C 10.445312 13.879047 11.357141 12.984422 12.494141 12.982422 z M 15.652344 12.996094 C 16.760344 12.996094 17.658203 13.895906 17.658203 15.003906 C 17.658203 16.111906 16.761344 17.011719 15.652344 17.011719 C 14.543344 17.011719 13.644531 16.111906 13.644531 15.003906 C 13.644531 13.895906 14.544344 12.996094 15.652344 12.996094 z M 8.9433594 13.007812 C 9.3653594 13.007812 9.7512187 13.150594 10.074219 13.433594 L 9.6816406 13.949219 C 9.4866406 13.730219 9.3001719 13.636719 9.0761719 13.636719 C 8.7521719 13.636719 8.5175781 13.821453 8.5175781 14.064453 C 8.5175781 14.271453 8.6486094 14.382828 9.0996094 14.548828 C 9.9536094 14.861828 10.206031 15.136047 10.207031 15.748047 C 10.208031 16.492047 9.6608594 17.013672 8.8808594 17.013672 C 8.3088594 17.013672 7.8948281 16.786297 7.5488281 16.279297 L 8.0332031 15.8125 C 8.2052031 16.1475 8.4935625 16.326172 8.8515625 16.326172 C 9.1865625 16.326172 9.4355469 16.095203 9.4355469 15.783203 C 9.4355469 15.411203 9.1004062 15.320969 8.6914062 15.167969 C 7.9904062 14.902969 7.7441406 14.639375 7.7441406 14.109375 C 7.7441406 13.480375 8.2623594 13.007812 8.9433594 13.007812 z M 3 13.070312 L 4.1015625 13.070312 C 5.3185625 13.070312 6.1679687 13.861094 6.1679688 14.996094 C 6.1679688 15.596094 5.7707031 16.919922 4.0957031 16.919922 L 3 16.919922 L 3 13.070312 z M 6.5136719 13.070312 L 7.265625 13.070312 L 7.265625 16.919922 L 7.2636719 16.919922 L 6.5136719 16.919922 L 6.5136719 13.070312 z M 17.523438 13.070312 L 18.34375 13.070312 L 19.369141 15.654297 L 20.410156 13.070312 L 21.224609 13.070312 L 19.560547 17.017578 L 19.15625 17.017578 L 17.523438 13.070312 z M 21.5625 13.070312 L 23.691406 13.070312 L 23.691406 13.722656 L 22.3125 13.722656 L 22.3125 14.576172 L 23.642578 14.576172 L 23.642578 15.228516 L 22.3125 15.228516 L 22.3125 16.267578 L 23.691406 16.267578 L 23.691406 16.919922 L 21.5625 16.919922 L 21.5625 13.070312 z M 24.189453 13.070312 L 25.302734 13.070312 C 26.168734 13.070312 26.666016 13.486031 26.666016 14.207031 C 26.666016 14.796031 26.355062 15.183828 25.789062 15.298828 L 27 16.919922 L 26.076172 16.919922 L 25.037109 15.373047 L 24.939453 15.373047 L 24.939453 16.919922 L 24.189453 16.919922 L 24.189453 13.070312 z M 24.939453 13.677734 L 24.939453 14.84375 L 25.158203 14.84375 C 25.638203 14.84375 25.892578 14.634094 25.892578 14.246094 C 25.892578 13.872094 25.639875 13.677734 25.171875 13.677734 L 24.939453 13.677734 z M 3.75 13.722656 L 3.75 16.267578 L 3.9511719 16.267578 C 5.3031719 16.267578 5.3935312 15.282187 5.3945312 14.992188 C 5.3955313 14.386188 5.024 13.722656 4 13.722656 L 3.75 13.722656 z"/>
</svg>
