<?xml version="1.0" encoding="iso-8859-1"?>
<!-- Generator: Adobe Illustrator 19.0.0, SVG Export Plug-In . SVG Version: 6.00 Build 0)  -->
<svg version="1.1" id="Capa_1" xmlns="http://www.w3.org/2000/svg" xmlns:xlink="http://www.w3.org/1999/xlink" x="0px" y="0px"
	 viewBox="0 0 512 512" style="enable-background:new 0 0 512 512;" xml:space="preserve">
<g>
	<g>
		<path d="M210,316v-68.35c37.222-25.005,60-67.017,60-111.65C270,61.557,209.443,0,135,0S0,61.557,0,136
			c0,44.634,22.778,86.646,60,111.65V436c0,3.984,1.582,7.793,4.395,10.605l60,61c2.93,2.93,6.768,4.395,10.605,4.395
			c3.837,0,7.676-1.465,10.605-4.395l60-61c5.859-5.859,5.859-15.352,0-21.211L186.211,406l19.395-19.395
			c5.859-5.859,5.859-15.352,0-21.211L186.211,346l19.395-19.395C208.418,323.793,210,319.984,210,316z M135,151
			c-24.814,0-45-20.186-45-45c0-24.814,20.186-45,45-45c24.814,0,45,20.186,45,45C180,130.814,159.814,151,135,151z"/>
	</g>
</g>
<g>
	<g>
		<path d="M467,181c-19.53,0-36.024,12.578-42.237,30H377c-5.684,0-10.869,3.208-13.418,8.291L337.728,271H255
			c-8.291,0-15,6.709-15,15c0,8.291,6.709,15,15,15h92c5.684,0,10.869-3.208,13.418-8.291L386.272,241h38.491
			c6.213,17.422,22.707,30,42.237,30c24.814,0,45-20.186,45-45C512,201.186,491.814,181,467,181z"/>
	</g>
</g>
<g>
	<g>
		<path d="M467,301c-19.53,0-36.024,12.578-42.237,30H255c-8.291,0-15,6.709-15,15c0,8.291,6.709,15,15,15h169.763
			c6.213,17.422,22.707,30,42.237,30c24.814,0,45-20.186,45-45C512,321.186,491.814,301,467,301z"/>
	</g>
</g>
<g>
	<g>
		<path d="M467,421c-19.53,0-36.024,12.578-42.237,30h-38.491l-25.854-51.709C357.869,394.208,352.684,391,347,391h-92
			c-8.291,0-15,6.709-15,15c0,8.291,6.709,15,15,15h82.728l25.854,51.709C366.131,477.792,371.316,482,377,482h47.763
			c6.213,17.422,22.707,30,42.237,30c24.814,0,45-21.186,45-46C512,441.186,491.814,421,467,421z"/>
	</g>
</g>
<g>
	<g>
		<path d="M467,61c-19.53,0-36.024,12.578-42.237,30H377c-5.01,0-9.697,2.505-12.48,6.68L308.973,181H285c-8.291,0-15,6.709-15,15
			s6.709,15,15,15h32c5.01,0,9.697-2.505,12.48-6.68L385.027,121h39.736c6.213,17.422,22.707,30,42.237,30c24.814,0,45-20.186,45-45
			C512,81.186,491.814,61,467,61z"/>
	</g>
</g>
<g>
</g>
<g>
</g>
<g>
</g>
<g>
</g>
<g>
</g>
<g>
</g>
<g>
</g>
<g>
</g>
<g>
</g>
<g>
</g>
<g>
</g>
<g>
</g>
<g>
</g>
<g>
</g>
<g>
</g>
</svg>
